<?xml version="1.0" standalone="no"?>
<!DOCTYPE svg PUBLIC "-//W3C//DTD SVG 20010904//EN"
 "http://www.w3.org/TR/2001/REC-SVG-20010904/DTD/svg10.dtd">
<svg version="1.0" xmlns="http://www.w3.org/2000/svg"
 width="700.000000pt" height="700.000000pt" viewBox="0 0 700.000000 700.000000"
 preserveAspectRatio="xMidYMid meet">
<metadata>
Created by potrace 1.14, written by Peter Selinger 2001-2017
</metadata>
<g transform="translate(0.000000,700.000000) scale(0.100000,-0.100000)"
fill="#000000" stroke="none">
<path d="M507 6699 c-90 -21 -151 -71 -189 -154 l-23 -50 -3 -1514 c-2 -1359
-1 -1521 14 -1570 15 -55 31 -71 1302 -1345 708 -708 1320 -1315 1360 -1347
299 -241 703 -253 1024 -30 99 69 2267 2238 2328 2330 60 90 107 196 131 298
31 128 24 324 -15 438 -34 100 -72 172 -136 255 -27 36 -635 651 -1352 1367
-1274 1272 -1304 1302 -1357 1317 -49 14 -215 16 -1550 15 -832 -1 -1513 -5
-1534 -10z m4110 -1811 c963 -964 1237 -1243 1252 -1278 28 -61 28 -159 0
-220 -30 -68 -2183 -2222 -2254 -2256 -65 -31 -160 -32 -225 -3 -35 15 -314
289 -1277 1252 l-1233 1232 0 1252 0 1253 1253 0 1252 0 1232 -1232z"/>
<path d="M1930 5230 c-219 -75 -244 -413 -40 -524 71 -39 181 -47 261 -21 71
24 140 93 164 164 26 80 18 190 -21 261 -65 119 -219 170 -364 120z"/>
</g>
</svg>
